<?xml version="1.0" encoding="UTF-8"?>
<svg id="Layer_2" data-name="Layer 2" xmlns="http://www.w3.org/2000/svg" viewBox="0 0 49.45 49.45">
  <g id="Layer_1-2" data-name="Layer 1">
    <path d="m37.74,3.9h4.56c3.95,0,7.15,3.2,7.15,7.16v31.22c0,3.96-3.2,7.16-7.15,7.16H7.15c-3.95,0-7.15-3.2-7.15-7.16V11.07C0,7.11,3.2,3.9,7.15,3.9h4.56v-1.95c0-1.08.87-1.95,1.95-1.95s1.95.87,1.95,1.95v1.95h18.22v-1.95c0-1.08.87-1.95,1.95-1.95s1.95.87,1.95,1.95v1.95Zm0,3.9v1.95c0,1.08-.87,1.95-1.95,1.95s-1.95-.87-1.95-1.95v-1.95H15.61v1.95c0,1.08-.87,1.95-1.95,1.95s-1.95-.87-1.95-1.95v-1.95h-4.56c-1.8,0-3.25,1.46-3.25,3.26,0,0,0,0,0,0v31.22c0,1.8,1.45,3.25,3.24,3.26,0,0,0,0,0,0h35.14c1.8,0,3.25-1.46,3.25-3.26h0V11.07c0-1.8-1.45-3.25-3.24-3.26,0,0,0,0,0,0h-4.56Zm-.65,13.66c1.08,0,1.95.87,1.95,1.95s-.87,1.95-1.95,1.95H12.36c-1.08,0-1.95-.87-1.95-1.95s.87-1.95,1.95-1.95h24.72,0Zm-7.81,9.76c1.08,0,1.95.87,1.95,1.95s-.87,1.95-1.95,1.95H12.36c-1.08,0-1.95-.87-1.95-1.95s.87-1.95,1.95-1.95h16.92Z"/>
  </g>
</svg>