<?xml version="1.0" encoding="UTF-8"?>
<svg id="Layer_2" data-name="Layer 2" xmlns="http://www.w3.org/2000/svg" viewBox="0 0 50 49.83">
  <g id="Layer_1-2" data-name="Layer 1">
    <g>
      <path class="cls-1" d="m24.94,49.83H8c-4.41,0-8-3.59-8-8V8C0,3.59,3.59,0,8,0h16.94c1.66,0,3,1.34,3,3s-1.34,3-3,3H8c-1.08,0-2,.92-2,2v33.83c0,1.08.92,2,2,2h16.94c1.66,0,3,1.34,3,3s-1.34,3-3,3Z"/>
      <path class="cls-1" d="m38.55,13.63c-1.17-1.17-3.07-1.17-4.24,0-1.17,1.17-1.17,3.07,0,4.24l4.35,4.35h-17.52c-1.66,0-3,1.34-3,3s1.34,3,3,3h17.22l-4.05,4.05c-1.17,1.17-1.17,3.07,0,4.24.59.59,1.35.88,2.12.88s1.54-.29,2.12-.88l11.44-11.44-11.44-11.44Z"/>
    </g>
  </g>
</svg>