<?xml version="1.0" encoding="UTF-8"?>
<svg id="Layer_2" data-name="Layer 2" xmlns="http://www.w3.org/2000/svg" viewBox="0 0 50 35.05">
  <g id="Layer_1-2" data-name="Layer 1">
    <g>
      <path d="m45.9,35.05H4.1c-2.27,0-4.1-1.79-4.1-4s1.84-4,4.1-4h41.79c2.27,0,4.1,1.79,4.1,4s-1.84,4-4.1,4Z"/>
      <path d="m45.9,8H4.1C1.84,8,0,6.21,0,4S1.84,0,4.1,0h41.79c2.27,0,4.1,1.79,4.1,4s-1.84,4-4.1,4Z"/>
      <path d="m45.9,21.81H4.1c-2.27,0-4.1-1.79-4.1-4s1.84-4,4.1-4h41.79c2.27,0,4.1,1.79,4.1,4s-1.84,4-4.1,4Z"/>
    </g>
  </g>
</svg>