<?xml version="1.0" encoding="UTF-8"?>
<svg id="Layer_2" data-name="Layer 2" xmlns="http://www.w3.org/2000/svg" viewBox="0 0 49.94 49.94">
  <g id="Layer_1-2" data-name="Layer 1">
    <path d="m8.32,0v18.82c0,1.55,1.49,2.82,3.33,2.82h26.63c1.84,0,3.33-1.26,3.33-2.82V0C46.21,0,49.94,3.73,49.94,8.32h0v33.29c0,4.6-3.73,8.32-8.32,8.32H8.32c-4.6,0-8.32-3.73-8.32-8.32h0V8.32C0,3.73,3.73,0,8.32,0h0ZM11.65,0h26.63v18.31H11.65V0Zm21.64,6.66c-.92,0-1.66.75-1.66,1.66h0v4.99c0,.92.75,1.66,1.66,1.66s1.66-.75,1.66-1.66v-4.99c0-.92-.75-1.66-1.66-1.66h0Z"/>
  </g>
</svg>