<?xml version="1.0" encoding="UTF-8"?>
<svg id="Layer_2" data-name="Layer 2" xmlns="http://www.w3.org/2000/svg" viewBox="0 0 50.04 49.53">
  <g id="Layer_1-2" data-name="Layer 1">
    <g>
      <path d="m21.13,42.26C9.48,42.26,0,32.78,0,21.13S9.48,0,21.13,0s21.13,9.48,21.13,21.13-9.48,21.13-21.13,21.13Zm0-36.26c-8.34,0-15.13,6.79-15.13,15.13s6.79,15.13,15.13,15.13,15.13-6.79,15.13-15.13-6.79-15.13-15.13-15.13Z"/>
      <path d="m47.04,49.53c-.77,0-1.54-.29-2.12-.88l-12.7-12.7c-1.17-1.17-1.17-3.07,0-4.24,1.17-1.17,3.07-1.17,4.24,0l12.7,12.7c1.17,1.17,1.17,3.07,0,4.24-.59.59-1.35.88-2.12.88Z"/>
    </g>
  </g>
</svg>