<?xml version="1.0" encoding="UTF-8"?>
<svg id="Layer_2" data-name="Layer 2" xmlns="http://www.w3.org/2000/svg" viewBox="0 0 50.05 47.84">
  <g id="Layer_1-2" data-name="Layer 1">
    <path d="m38.94,47.84c-.4,0-.8-.09-1.16-.29l-12.76-6.71-12.76,6.71c-.84.44-1.86.37-2.63-.19-.77-.56-1.16-1.51-.99-2.45l2.44-14.2L.75,20.65c-.68-.66-.93-1.66-.63-2.56.29-.91,1.08-1.56,2.02-1.7l14.26-2.07L22.78,1.39c.42-.85,1.29-1.39,2.24-1.39s1.82.54,2.24,1.39l6.38,12.92,14.26,2.07c.94.14,1.72.8,2.02,1.7.29.9.05,1.9-.63,2.56l-10.32,10.06,2.44,14.2c.16.94-.22,1.89-.99,2.45-.44.32-.95.48-1.47.48Zm-13.92-12.32c.4,0,.8.1,1.16.29l9.44,4.96-1.8-10.51c-.14-.81.13-1.64.72-2.21l7.63-7.44-10.55-1.53c-.81-.12-1.52-.63-1.88-1.37l-4.72-9.56-4.72,9.56c-.36.74-1.07,1.25-1.88,1.37l-10.55,1.53,7.63,7.44c.59.57.86,1.4.72,2.21l-1.8,10.51,9.44-4.96c.36-.19.76-.29,1.16-.29Zm-6.96-18.92h0,0Z"/>
  </g>
</svg>