<svg width="432" height="155" viewBox="0 0 432 155" fill="none" xmlns="http://www.w3.org/2000/svg">
<path d="M154.631 59.4694C153.449 58.6338 152.232 57.7832 150.998 56.9177C150.911 56.858 150.824 56.7983 150.72 56.7237C150.511 56.5894 150.198 56.6789 150.007 56.858C149.833 57.037 149.816 57.2758 149.938 57.4698C149.99 57.5295 150.059 57.5892 150.112 57.6339C151.137 58.6487 152.163 59.6634 153.171 60.6334C173.178 80.0925 188.213 90.6428 198.729 90.4936C198.747 90.4936 198.799 90.4936 198.816 90.4936V90.4488C189.343 84.5991 175.681 74.3473 154.631 59.4694Z" fill="#55C3F1"/>
<path d="M221.83 77.7198C221.83 77.7198 221.83 77.7198 221.848 77.7198C221.848 77.7198 221.865 77.7198 221.882 77.7198C220.457 97.0297 240.325 122.189 281.155 48.3371C281.451 47.785 281.729 47.2478 282.007 46.6957C282.042 46.621 282.094 46.5464 282.129 46.4569C282.181 46.248 282.059 46.0092 281.833 45.9048C281.59 45.7854 281.294 45.8301 281.103 46.0092C281.051 46.0689 281.016 46.1286 280.964 46.1883C280.599 46.6957 280.199 47.203 279.852 47.7104C237.213 106.968 225.863 80.4656 223.012 1.79346C223.012 1.4204 222.977 1.04733 222.977 0.674265C222.977 0.316122 222.63 0.0176697 222.213 0.0176697C221.795 0.0176697 221.483 0.286277 221.448 0.629498C221.448 0.64442 221.448 0.659343 221.448 0.674265C221.448 0.674265 221.448 0.704111 221.448 0.719033C221.448 1.16671 221.448 1.61439 221.448 2.06207C220.805 60.6185 215.173 90.1056 198.834 90.4787V90.5234C198.834 90.5234 198.851 90.5234 198.868 90.5383C216.894 101.656 218.614 96.7909 221.83 77.7198Z" fill="#005BAC"/>
<path d="M73.1426 150.348V131.412H78.6797V124.289H82.084V131.412H87.6484V146.273C87.6484 147.595 87.4023 148.534 86.9102 149.09C86.4089 149.673 85.5202 150.001 84.2441 150.074C83.1048 150.129 81.8516 150.156 80.4844 150.156C80.3568 149.263 80.1426 148.197 79.8418 146.957C80.7259 147.012 81.6966 147.039 82.7539 147.039C83.3646 147.039 83.7884 146.911 84.0254 146.656C84.2624 146.401 84.3809 145.945 84.3809 145.289V144.687H76.3828V150.348H73.1426ZM67.168 150.293L65.377 147.559C65.6777 147.139 65.8919 146.738 66.0195 146.355C66.1562 145.945 66.2246 145.471 66.2246 144.934V141.187H63.5176V138.221H66.2246V135.596H64.4883V133.9L63.1895 131.658C64.3652 129.689 65.3952 127.178 66.2793 124.125L69.4102 124.699C69.3555 124.863 69.2734 125.109 69.1641 125.437C68.8542 126.385 68.6217 127.078 68.4668 127.516H72.2402V130.455H67.25C67.2044 130.555 67.1315 130.701 67.0312 130.892C66.6484 131.667 66.3522 132.251 66.1426 132.642H71.707V135.596H69.2734V138.221H72.0762V141.187H69.2734V145.344C69.9206 144.879 70.8047 144.286 71.9258 143.566C71.944 144.532 72.0124 145.635 72.1309 146.875C70.4447 147.914 69.1868 148.734 68.3574 149.336C67.929 149.646 67.5326 149.965 67.168 150.293ZM76.3828 141.789H84.3809V139.642H76.3828V141.789ZM76.3828 136.717H84.3809V134.584H76.3828V136.717ZM84.75 130.92L82.6719 128.623C82.8268 128.486 83.0501 128.281 83.3418 128.008C84.7181 126.741 85.7116 125.793 86.3223 125.164L88.4824 127.351C86.9694 128.874 85.7253 130.063 84.75 130.92ZM75.6445 130.865C74.5326 129.525 73.4251 128.263 72.3223 127.078L74.6191 125.219C75.8952 126.458 77.0573 127.648 78.1055 128.787L75.6445 130.865ZM94.0332 150.484V141.98H114.514V150.484H111.055V149.418H97.4922V150.484H94.0332ZM97.4922 146.82H111.055V144.551H97.4922V146.82ZM94.0879 141.297V133.846C93.4408 134.557 92.748 135.286 92.0098 136.033C91.7637 134.711 91.4811 133.39 91.1621 132.068C92.2741 130.965 93.2448 129.762 94.0742 128.459C94.8763 127.192 95.5918 125.756 96.2207 124.152L99.8438 124.562C99.5156 125.328 99.1465 126.112 98.7363 126.914H104.109L102.947 124.562L106.707 124.18L107.992 126.914H115.539V129.334H107.404V130.81H114.746V132.998H107.404V134.475H114.746V136.662H107.404V138.139H115.908V140.586H97.4648V141.297H94.0879ZM97.4648 138.139H103.973V136.662H97.4648V138.139ZM97.4648 134.475H103.973V132.998H97.4648V134.475ZM97.4648 130.81H103.973V129.334H97.4648V130.81ZM130.346 150.566C129.771 149.655 129.097 148.67 128.322 147.613C130.428 146.711 131.973 145.891 132.957 145.152C133.987 144.378 134.698 143.475 135.09 142.445C135.436 141.543 135.632 140.244 135.678 138.549L135.705 134.912H138.836L138.781 138.767C138.727 140.308 138.572 141.598 138.316 142.637C141.087 144.651 143.243 146.255 144.783 147.449L142.773 150.266C140.969 148.67 139.068 147.085 137.072 145.508C136.462 146.401 135.618 147.249 134.543 148.051C133.486 148.844 132.087 149.682 130.346 150.566ZM120.01 150.156C119.837 149.026 119.627 147.95 119.381 146.93C120.101 146.966 120.707 146.984 121.199 146.984C122.038 146.984 122.457 146.519 122.457 145.59V137.318H119.299V134.31H123.004C121.974 133.135 121.012 132.05 120.119 131.057L122.225 129.279L124.221 131.385L126.271 128.432H119.709V125.492H129.402V129.033L125.656 134.31H129.84V137.291L129.143 141.926C128.231 141.753 127.438 141.652 126.764 141.625L127.379 137.318H125.766V146.465C125.766 147.695 125.524 148.588 125.041 149.144C124.558 149.71 123.77 150.029 122.676 150.101C122.138 150.138 121.249 150.156 120.01 150.156ZM130.865 143.73V130.81H135.021L135.432 128.35H130.4V125.41H144.482V128.35H138.918L138.316 130.81H143.676V143.648H140.613V133.654H133.859V143.73H130.865ZM153.971 150.539C153.752 150.202 153.255 149.509 152.48 148.461C152.253 148.151 152.084 147.923 151.975 147.777C153.469 146.747 154.563 145.836 155.256 145.043C156.003 144.168 156.518 143.161 156.801 142.021C157.056 140.964 157.184 139.488 157.184 137.592V130.209H159.945V137.81C159.945 139.679 159.827 141.269 159.59 142.582C161.349 144.122 163.044 145.654 164.676 147.176L162.57 149.664C162.033 149.099 160.989 148.046 159.439 146.506C159.048 146.123 158.756 145.836 158.564 145.644C158.118 146.501 157.516 147.326 156.76 148.119C156.04 148.876 155.11 149.682 153.971 150.539ZM150.566 150.129L147.463 149.226C148.247 146.483 149.021 143.252 149.787 139.533C150.535 139.816 151.551 140.148 152.836 140.531L150.566 150.129ZM165.646 150.019C165.546 149.272 165.35 148.178 165.059 146.738C165.924 146.829 166.74 146.875 167.506 146.875C168.016 146.875 168.367 146.77 168.559 146.56C168.759 146.351 168.859 145.954 168.859 145.371V124.48H171.703V146.273C171.703 147.531 171.503 148.429 171.102 148.967C170.691 149.514 169.953 149.837 168.887 149.937C168.185 149.992 167.105 150.019 165.646 150.019ZM165.004 143.812V127.051H167.506V143.812H165.004ZM153.383 142.445V129.115L150.539 130.838C150.348 130.537 150.038 130.059 149.609 129.402C148.671 127.944 147.973 126.896 147.518 126.258L150.252 124.672C150.717 125.328 151.419 126.312 152.357 127.625C152.822 128.281 153.164 128.76 153.383 129.06V125.383H163.814V142.445H161.217V128.705H155.926V142.445H153.383ZM150.006 138.166C149.249 136.935 148.265 135.441 147.053 133.682L149.705 132.041C149.787 132.15 149.91 132.319 150.074 132.547C151.487 134.424 152.408 135.705 152.836 136.389L150.006 138.166ZM186.947 150.129C186.765 148.907 186.514 147.604 186.195 146.219C188.055 146.31 189.718 146.355 191.186 146.355C192.462 146.355 193.346 146.159 193.838 145.767C194.294 145.394 194.562 144.715 194.645 143.73C194.845 141.388 194.982 139.26 195.055 137.346H178.389L179.359 124.289H183.188L182.928 127.543H200.072V131.002H182.654L182.436 133.9H199.047C198.892 137.273 198.696 140.713 198.459 144.223C198.359 145.699 198.117 146.838 197.734 147.641C197.333 148.461 196.727 149.058 195.916 149.432C195.141 149.787 194.052 149.992 192.648 150.047C190.725 150.101 188.825 150.129 186.947 150.129ZM175.271 143.594V140.107H193.236V143.594H175.271ZM206.73 150.101L204.543 147.34C204.908 146.902 205.158 146.474 205.295 146.055C205.441 145.626 205.514 145.098 205.514 144.469V136.334H203.354V132.943H208.836V143.211L210.764 141.297C211.074 142.637 211.397 143.849 211.734 144.934C210.422 146.109 209.278 147.23 208.303 148.297C207.82 148.807 207.296 149.409 206.73 150.101ZM219.377 150.019C219.377 150.001 219.372 149.978 219.363 149.951C219.062 148.538 218.798 147.44 218.57 146.656C220.047 146.693 221.227 146.711 222.111 146.711C222.859 146.711 223.378 146.551 223.67 146.232C223.971 145.904 224.135 145.335 224.162 144.523C224.271 140.431 224.344 135.705 224.381 130.346H215.057C214.41 131.403 213.904 132.169 213.539 132.642H222.057V146.301H211.98V134.693L211.598 135.131L209.246 132.424C210.34 131.248 211.288 129.999 212.09 128.678C212.819 127.475 213.557 125.975 214.305 124.18L217.805 124.781L216.725 127.16H227.785C227.749 131.644 227.667 137.227 227.539 143.908C227.521 144.51 227.512 144.952 227.512 145.234C227.457 146.866 227.129 148.042 226.527 148.762C225.898 149.509 224.846 149.91 223.369 149.965C222.531 150.001 221.2 150.019 219.377 150.019ZM215.029 143.402H218.994V140.75H215.029V143.402ZM215.029 138.166H218.994V135.541H215.029V138.166ZM207.168 131.002C206.257 129.525 205.186 127.898 203.955 126.121L206.84 124.344C207.879 125.684 209.023 127.238 210.271 129.006L207.168 131.002ZM242.195 150.512V146.465H231.354V143.238H242.195V141.215H233.35V128.226H238.463L236.439 125.601L239.543 124.125C239.561 124.143 239.589 124.175 239.625 124.221C240.828 125.633 241.667 126.65 242.141 127.269L240.24 128.226H245.682C246.73 126.641 247.564 125.282 248.184 124.152L251.779 125.191C251.214 126.057 250.512 127.069 249.674 128.226H254.678V141.215H245.777V143.238H256.619V146.465H245.777V150.512H242.195ZM236.863 138.275H242.195V135.978H236.863V138.275ZM245.777 138.275H251.164V135.978H245.777V138.275ZM236.863 133.435H242.195V131.166H236.863V133.435ZM245.777 133.435H251.164V131.166H245.777V133.435ZM262.484 150.484V136.689H260.092V131.521H261.145C260.452 130.82 259.764 130.182 259.08 129.607C260.128 128.678 260.967 127.803 261.596 126.982C262.234 126.153 262.767 125.237 263.195 124.234L266.6 124.535C266.335 125.091 266.057 125.629 265.766 126.148H272.438V128.678C273.613 127.092 274.447 125.611 274.939 124.234L278.234 124.535C277.943 125.2 277.692 125.738 277.482 126.148H284.564V128.678H280.354L281.611 130.346L278.508 130.81L277.004 128.678H276.074C275.719 129.279 275.299 129.926 274.816 130.619C274.725 130.592 274.602 130.546 274.447 130.482C273.864 130.254 273.426 130.09 273.135 129.99L273.695 131.521H283.963V136.689H281.242V141.652H265.971V143.019H282.076V150.32H278.645V149.445H265.971V150.484H262.484ZM265.971 147.066H278.645V145.426H265.971V147.066ZM265.971 139.287H277.811V137.756H265.971V139.287ZM263.537 135.377H280.504V134.01H263.537V135.377ZM261.541 131.521H270.455C270.391 131.339 270.286 131.084 270.141 130.756C270.022 130.501 269.94 130.309 269.895 130.182L272.861 129.881L271.809 129.498C271.954 129.316 272.155 129.042 272.41 128.678H268.186C268.322 128.851 268.527 129.115 268.801 129.471C269.083 129.844 269.302 130.127 269.457 130.318L266.408 130.81L264.891 128.678H264.139C263.455 129.598 262.589 130.546 261.541 131.521ZM295.051 149.5V146.984C292.991 147.358 290.571 147.859 287.791 148.488L287.244 144.879C288.383 144.715 289.331 144.569 290.088 144.441V138.057H287.791V134.83H290.088V129.06H287.654V125.766H295.68V129.06H293.246V134.83H295.516V138.057H293.246V143.922C293.374 143.904 293.574 143.872 293.848 143.826C294.668 143.68 295.288 143.566 295.707 143.484C295.689 144.268 295.68 145.243 295.68 146.41H302.406V144.141H296.404V141.187H302.406V139.123H296.541V125.301H311.539V139.123H305.646V141.187H311.73V144.141H305.646V146.41H312.729V149.5H295.051ZM299.781 136.17H302.406V133.6H299.781V136.17ZM305.646 136.17H308.326V133.6H305.646V136.17ZM299.781 130.81H302.406V128.254H299.781V130.81ZM305.646 130.81H308.326V128.254H305.646V130.81ZM322.996 150.184C322.859 149.281 322.609 148.151 322.244 146.793C323.329 146.848 324.268 146.875 325.061 146.875C325.626 146.875 326.022 146.747 326.25 146.492C326.478 146.228 326.592 145.781 326.592 145.152V141.57C324.031 141.698 321.952 141.807 320.357 141.898C319.546 141.953 318.699 142.062 317.814 142.226L316.816 138.877C317.983 138.658 319.054 138.312 320.029 137.838C321.67 137.045 323.488 136.115 325.484 135.049L321.137 135.295C320.344 135.34 319.514 135.422 318.648 135.541L317.705 132.478C318.762 132.232 319.564 131.941 320.111 131.603C321.305 130.911 322.618 130.081 324.049 129.115C323.939 129.124 323.766 129.133 323.529 129.142C320.604 129.243 318.448 129.307 317.062 129.334C317.026 129.161 316.967 128.892 316.885 128.527C316.666 127.47 316.488 126.668 316.352 126.121C326.451 125.893 333.961 125.574 338.883 125.164L339.648 128.295C336.686 128.514 333.441 128.705 329.914 128.869C327.234 130.51 325.22 131.695 323.871 132.424C324.208 132.415 324.746 132.401 325.484 132.383C327.654 132.328 329.303 132.278 330.434 132.232C332.63 130.92 334.234 129.926 335.246 129.252L337.857 131.685C332.954 134.402 328.31 136.781 323.926 138.822C325.257 138.786 327.453 138.713 330.516 138.603C331.947 138.549 333.008 138.512 333.701 138.494C333.637 138.421 333.546 138.316 333.428 138.18C332.708 137.359 332.188 136.771 331.869 136.416L334.289 134.885C336.431 137.017 338.432 139.109 340.291 141.16L337.775 143.156L336.107 141.215L330.215 141.434V145.973C330.215 147.404 329.955 148.415 329.436 149.008C328.907 149.618 327.941 149.974 326.537 150.074C325.653 150.147 324.473 150.184 322.996 150.184ZM317.172 149.746C316.816 149.199 316.192 148.297 315.299 147.039C315.244 146.957 315.199 146.893 315.162 146.848C317.359 145.544 319.601 143.94 321.889 142.035L324.131 144.469C321.324 146.72 319.004 148.479 317.172 149.746ZM338.35 149.609C336.518 148.151 334.266 146.483 331.596 144.605L333.783 142.117C336.682 144.059 338.942 145.608 340.564 146.766L338.35 149.609ZM352.924 150.566C352.149 149.527 351.383 148.579 350.627 147.723C347.829 148.096 345.532 148.461 343.736 148.816L343.189 145.316C343.837 145.234 345.031 145.084 346.771 144.865C349.442 144.537 351.292 144.305 352.322 144.168C352.295 144.66 352.263 145.353 352.227 146.246C352.227 146.41 352.222 146.529 352.213 146.601C353.215 145.818 353.931 145.002 354.359 144.154C354.77 143.361 355.029 142.336 355.139 141.078L355.221 138.685C354.318 138.786 353.589 138.904 353.033 139.041L351.816 135.869C352.618 135.277 353.329 134.575 353.949 133.764C354.87 132.652 355.672 131.512 356.355 130.346H352.049V127.324H358.379L357.572 124.59L361.346 124.234L362.166 127.324H368.291V130.346H360.566C359.044 132.296 357.632 134.028 356.328 135.541L362.918 135.322L360.977 132.697L363.451 131.166C365.465 133.627 367.188 135.842 368.619 137.81L365.912 139.642L364.859 138.111C364.577 138.111 364.18 138.129 363.67 138.166V145.699C363.67 146.082 363.72 146.342 363.82 146.478C363.921 146.615 364.107 146.684 364.381 146.684H364.668C365.014 146.684 365.256 146.615 365.393 146.478C365.529 146.342 365.63 146.064 365.693 145.644C365.821 144.824 365.939 143.721 366.049 142.336C366.295 142.436 366.623 142.568 367.033 142.732C367.762 143.024 368.327 143.238 368.729 143.375C368.61 144.76 368.446 146.045 368.236 147.23C368.072 148.105 367.73 148.743 367.211 149.144C366.664 149.564 365.853 149.773 364.777 149.773H363.533C362.403 149.773 361.596 149.518 361.113 149.008C360.639 148.506 360.402 147.668 360.402 146.492V138.357C359.992 138.394 359.377 138.426 358.557 138.453C358.529 138.462 358.507 138.467 358.488 138.467C358.488 138.503 358.484 138.562 358.475 138.644C358.447 139.702 358.415 140.449 358.379 140.887C358.279 142.354 358.06 143.589 357.723 144.592C357.367 145.685 356.811 146.697 356.055 147.627C355.307 148.557 354.264 149.536 352.924 150.566ZM344.57 143.074L343.709 140.08C344.365 139.597 345.104 138.758 345.924 137.564C346.261 137.1 346.749 136.361 347.387 135.35C346.065 135.432 344.949 135.541 344.037 135.678L343.189 132.642C343.764 132.159 344.342 131.303 344.926 130.072C345.874 128.386 346.762 126.422 347.592 124.18L351.133 125.301C349.72 127.78 348.307 130.136 346.895 132.369C347.004 132.369 347.2 132.36 347.482 132.342C348.193 132.314 348.727 132.287 349.082 132.26C349.419 131.658 349.798 130.929 350.217 130.072L353.115 131.467C351.128 134.693 349.406 137.4 347.947 139.588L351.98 139.232C351.871 140.308 351.807 141.306 351.789 142.226C348.353 142.518 345.947 142.801 344.57 143.074Z" fill="#0053B5"/>
<rect y="136.982" width="52" height="3" rx="1.5" fill="#D9E9F8"/>
<rect x="380" y="136.982" width="52" height="3" rx="1.5" fill="#D9E9F8"/>
</svg>
