<?xml version="1.0" encoding="UTF-8"?>
<svg id="Layer_2" data-name="Layer 2" xmlns="http://www.w3.org/2000/svg" viewBox="0 0 25.15 20">
  <defs>
    <style>
      .cls-1 {
        fill: #3370ff;
      }

      .cls-1, .cls-2, .cls-3, .cls-4 {
        stroke-width: 0px;
      }

      .cls-2 {
        fill: #133c9a;
      }

      .cls-3 {
        fill: #133c92;
      }

      .cls-4 {
        fill: #00d6b9;
      }
    </style>
  </defs>
  <g id="Layer_1-2" data-name="Layer 1">
    <g>
      <path class="cls-4" d="M13.07,10.5s.04-.04.06-.06c.04-.04.08-.08.12-.12l.09-.08.26-.25.35-.34.3-.3.28-.28.29-.29.27-.27.37-.37c.07-.07.14-.14.22-.21.14-.12.28-.24.42-.36.13-.11.27-.21.4-.31.19-.14.39-.27.6-.39.2-.12.41-.23.62-.33.2-.1.4-.18.61-.26.12-.05.23-.09.35-.13.06-.02.12-.04.18-.06-.53-2.08-1.49-3.98-2.79-5.6-.25-.32-.64-.5-1.05-.5H4.22c-.2,0-.28.25-.12.36,3.67,2.69,6.73,6.16,8.94,10.16,0,0,.02-.02.02-.02Z"/>
      <path class="cls-1" d="M8.79,20c5.57,0,10.42-3.07,12.96-7.62.09-.16.18-.32.26-.48-.13.25-.27.48-.42.7-.05.08-.11.15-.17.23-.07.09-.15.18-.22.27-.06.07-.12.14-.19.21-.13.14-.27.26-.41.38-.08.07-.16.13-.24.19-.1.07-.19.14-.29.21-.06.04-.13.08-.19.12-.07.04-.13.08-.2.12-.14.08-.28.15-.43.22-.13.06-.25.11-.39.16-.14.05-.28.1-.43.14-.22.06-.44.11-.66.14-.16.02-.32.04-.49.05-.17.01-.35.02-.52.01-.19,0-.39-.02-.59-.04-.14-.02-.29-.04-.43-.06-.13-.02-.25-.05-.38-.08-.07-.02-.13-.03-.2-.05-.19-.05-.37-.1-.56-.15-.09-.03-.18-.05-.28-.08-.14-.04-.27-.08-.41-.12-.11-.03-.22-.07-.33-.11-.11-.03-.21-.07-.32-.1-.07-.02-.14-.05-.22-.07-.09-.03-.17-.06-.26-.09-.06-.02-.12-.04-.19-.07-.12-.04-.25-.09-.37-.13-.07-.03-.14-.05-.21-.08-.09-.04-.19-.07-.28-.11-.1-.04-.2-.08-.3-.12-.06-.03-.13-.05-.19-.08-.08-.03-.16-.07-.24-.1-.06-.03-.12-.05-.19-.08-.06-.03-.13-.05-.19-.08-.05-.02-.11-.05-.17-.07-.05-.02-.1-.05-.15-.07-.05-.02-.1-.05-.15-.07-.05-.02-.11-.05-.16-.07-.07-.03-.13-.06-.2-.09-.07-.03-.14-.07-.21-.1-.07-.04-.15-.07-.22-.11-.06-.03-.13-.06-.19-.09-3.34-1.67-6.3-3.89-8.82-6.58-.13-.13-.35-.05-.35.14v9.52s0,.77,0,.77c0,.45.22.87.59,1.12,2.35,1.56,5.16,2.47,8.19,2.47Z"/>
      <path class="cls-3" d="M21.75,12.38s0,0,0,.01h0s.05-.11.05-.11c-.02.03-.03.06-.05.09Z"/>
      <path class="cls-3" d="M21.98,11.95v-.02s.02-.01.02-.01c0,.01-.01.02-.02.04Z"/>
      <path class="cls-2" d="M25.15,6.58c-1.13-.56-2.4-.87-3.74-.87-.8,0-1.57.11-2.3.32-.08.02-.17.05-.25.08-.06.02-.12.04-.18.06-.12.04-.23.08-.35.13-.21.08-.41.17-.61.26-.21.1-.42.21-.62.33-.21.12-.4.25-.6.39-.14.1-.27.2-.4.31-.14.12-.28.24-.42.36-.07.07-.15.14-.22.21l-.37.37-.27.27-.29.29-.28.28-.3.3-.35.34-.26.25-.08.08s-.08.08-.12.12c-.02.02-.04.04-.06.06-.03.03-.06.06-.09.09-.04.03-.07.07-.11.1-.92.85-1.96,1.58-3.07,2.17.07.03.13.06.2.09.05.02.11.05.16.07.05.02.1.05.15.07.05.02.1.05.15.07.05.02.11.05.17.07.06.03.13.06.19.08.06.03.12.05.18.08.08.03.16.07.24.1.06.03.13.05.19.08.1.04.2.08.3.12.09.04.19.07.28.11.07.03.14.05.21.08.12.05.24.09.37.13.06.02.12.04.19.07.09.03.17.06.26.09.07.02.14.05.22.07.11.04.21.07.32.1.11.04.22.07.33.11.14.04.27.08.41.12.09.03.18.05.28.08.18.05.37.11.55.15.07.02.13.04.2.05.13.03.25.06.38.08.15.03.29.05.43.06.2.02.39.03.59.04.18,0,.35,0,.52-.01.17-.01.33-.03.49-.05.22-.03.44-.08.66-.14.15-.04.29-.09.43-.14.13-.05.26-.1.39-.16.15-.07.29-.14.43-.22.07-.04.14-.08.2-.12.06-.04.13-.08.19-.12.1-.07.2-.14.29-.21.08-.06.16-.13.24-.19.14-.12.28-.25.41-.38.06-.07.13-.13.19-.21.08-.09.15-.18.22-.27.06-.08.12-.15.17-.23.15-.22.29-.45.42-.69l.14-.29,1.3-2.6h0c.41-.91.99-1.73,1.7-2.43Z"/>
    </g>
  </g>
</svg>