<?xml version="1.0" encoding="UTF-8"?>
<svg id="Layer_2" data-name="Layer 2" xmlns="http://www.w3.org/2000/svg" viewBox="0 0 81.07 96.55">
  <defs>
    <style>
      .clss-1 {
        fill: #005bac;
      }

      .clss-2 {
        fill: #231916;
      }

      .clss-3 {
        fill: #55c3f1;
      }
    </style>
  </defs>
  <g id="_图层_3" data-name="图层 3">
    <g>
      <g>
        <g>
          <path class="clss-2" d="m10.84,78.1c0,1.11-.39,2.05-1.17,2.83-.78.78-1.72,1.17-2.83,1.17h-3.32c-.18,0-.33-.07-.47-.2s-.2-.29-.2-.47v-11.98c0-.18.07-.33.2-.46.13-.13.29-.2.47-.2h3.33c.92,0,1.7.32,2.35.97.65.65.98,1.43.98,2.35,0,1.06-.41,1.92-1.23,2.59,1.27.78,1.9,1.91,1.9,3.4Zm-1.99-6c0-.55-.2-1.02-.59-1.41-.39-.39-.86-.59-1.41-.59h-2.66v4.01h2.66c.55,0,1.02-.2,1.41-.59.39-.39.59-.86.59-1.42Zm.66,6c0-.74-.26-1.37-.78-1.89-.52-.52-1.15-.78-1.88-.78h-2.66v5.35h2.66c.73,0,1.36-.26,1.88-.78.52-.52.78-1.15.78-1.89Z"/>
          <path class="clss-2" d="m20.52,79.41c0,.11-.03.22-.1.35-.37.7-.94,1.26-1.69,1.69-.75.43-1.54.64-2.35.64-1.28,0-2.38-.46-3.29-1.37-.91-.91-1.36-2.01-1.36-3.29s.45-2.38,1.36-3.3c.91-.91,2.01-1.37,3.29-1.37.46,0,.93.08,1.44.26.57.2,1.12.51,1.67.94.67.53,1.01,1.03,1.01,1.5,0,.23-.11.42-.33.54l-6.28,3.63c.66.75,1.49,1.13,2.49,1.13s1.88-.38,2.51-1.15c.08-.11.2-.29.38-.52.17-.23.35-.35.55-.35s.35.06.49.2c.14.13.21.28.21.46Zm-1.64-4.19c-.66-.76-1.49-1.14-2.49-1.14-.92,0-1.7.33-2.35.98-.65.65-.98,1.44-.98,2.36,0,.36.06.71.17,1.06l5.65-3.26Z"/>
          <path class="clss-2" d="m28.3,81.42c0,.45-.22.67-.67.67s-.67-.22-.67-.67v-5.34c0-.55-.2-1.03-.59-1.41-.39-.39-.86-.59-1.41-.59s-1.02.2-1.41.59c-.39.39-.59.86-.59,1.41v5.34c0,.45-.22.67-.67.67s-.67-.22-.67-.67v-7.99c0-.45.22-.67.67-.67s.67.22.67.67c.59-.45,1.25-.67,2-.67.92,0,1.7.33,2.35.98.65.65.98,1.44.98,2.35v5.33Z"/>
          <path class="clss-2" d="m38.11,79.41c0,.11-.03.22-.1.35-.37.7-.94,1.26-1.69,1.69-.75.43-1.54.64-2.35.64-1.28,0-2.38-.46-3.29-1.37-.91-.91-1.37-2.01-1.37-3.29s.46-2.38,1.37-3.3c.91-.91,2.01-1.37,3.29-1.37.46,0,.94.08,1.44.26.57.2,1.12.51,1.67.94.67.53,1.01,1.03,1.01,1.5,0,.23-.11.42-.33.54l-6.28,3.63c.66.75,1.49,1.13,2.49,1.13,1.05,0,1.88-.38,2.51-1.15.08-.11.2-.29.38-.52.17-.23.36-.35.54-.35s.35.06.49.2c.14.13.21.28.21.46Zm-1.64-4.19c-.66-.76-1.49-1.14-2.49-1.14-.92,0-1.7.33-2.35.98-.65.65-.98,1.44-.98,2.36,0,.36.06.71.17,1.06l5.65-3.26Z"/>
          <path class="clss-2" d="m53.65,73.42c0,.11-.03.21-.08.32l-3.93,7.87c-.17.33-.39.49-.66.49s-.49-.16-.65-.49l-2.01-4.02-2.01,4.02c-.16.33-.38.49-.65.49s-.49-.16-.64-.49l-3.94-7.87c-.05-.11-.08-.21-.08-.32,0-.18.07-.34.21-.47.14-.13.3-.19.49-.19.26,0,.44.12.57.37l3.4,6.8,1.92-3.83-1.19-2.36c-.05-.11-.08-.21-.08-.32,0-.19.07-.34.21-.47.14-.13.3-.19.49-.19.25,0,.44.12.57.37l3.4,6.79,3.4-6.79c.12-.25.32-.37.58-.37.18,0,.34.06.48.19.14.13.21.28.21.47Z"/>
          <path class="clss-2" d="m71.4,81.41c0,.18-.07.34-.2.48-.14.13-.3.2-.48.2-.17,0-.32-.07-.46-.2l-3.99-3.99c-.11-.11-.17-.22-.2-.35v3.88c0,.45-.22.67-.66.67s-.67-.22-.67-.67v-13.97c0-.44.22-.67.67-.67s.66.22.66.67v9.85c.02-.12.09-.24.19-.35l3.99-3.99c.14-.14.29-.2.46-.2.18,0,.34.07.48.2.14.14.2.3.2.48s-.07.32-.2.46l-3.52,3.52,3.52,3.52c.14.14.2.29.2.46Z"/>
          <path class="clss-2" d="m81.07,79.41c0,.11-.03.22-.1.35-.37.7-.94,1.26-1.69,1.69-.75.43-1.53.64-2.34.64-1.28,0-2.38-.46-3.29-1.37-.91-.91-1.37-2.01-1.37-3.29s.46-2.38,1.37-3.3c.91-.91,2.01-1.37,3.29-1.37.46,0,.93.08,1.44.26.57.2,1.12.51,1.67.94.67.53,1.01,1.03,1.01,1.5,0,.23-.11.42-.33.54l-6.28,3.63c.66.75,1.49,1.13,2.49,1.13s1.88-.38,2.51-1.15c.08-.11.2-.29.38-.52.18-.23.36-.35.55-.35s.35.06.49.2c.14.13.21.28.21.46Zm-1.64-4.19c-.66-.76-1.49-1.14-2.49-1.14-.92,0-1.7.33-2.35.98-.65.65-.97,1.44-.97,2.36,0,.36.06.71.17,1.06l5.65-3.26Z"/>
          <path class="clss-2" d="m62.5,73.38c-.44,0-.66.21-.66.63v.2c-.09-.08-.19-.17-.29-.25-.54-.43-1.1-.74-1.67-.94-.5-.17-.98-.26-1.44-.26-1.28,0-2.38.46-3.29,1.37-.91.91-1.36,2.01-1.36,3.3s.45,2.38,1.36,3.29c.91.91,2.01,1.37,3.29,1.37.81,0,1.59-.21,2.35-.64.41-.23.75-.5,1.05-.81v.98c0,.42.22.63.66.63s.67-.21.67-.63v-7.6c0-.43-.22-.64-.67-.64Zm-4.13,7.43c-1.85,0-3.35-1.5-3.35-3.36s1.5-3.36,3.35-3.36,3.35,1.5,3.35,3.36-1.5,3.36-3.35,3.36Z"/>
        </g>
      </g>
      <g>
        <path class="clss-3" d="m2.74,39.85c-.68-.56-1.38-1.13-2.09-1.71-.05-.04-.1-.08-.16-.13-.12-.09-.3-.03-.41.09-.1.12-.11.28-.04.41.03.04.07.08.1.11.59.68,1.18,1.36,1.76,2.01,11.51,13.04,20.16,20.11,26.21,20.01.01,0,.04,0,.05,0h0v-.03c-5.45-3.92-13.31-10.79-25.42-20.76Z"/>
        <path class="clss-1" d="m41.4,52.08s0,0,.01,0c0,0,.01,0,.02,0-.82,12.94,10.61,29.8,34.1-19.69.17-.37.33-.73.49-1.1.02-.05.05-.1.07-.16.03-.14-.04-.3-.17-.37-.14-.08-.31-.05-.42.07-.03.04-.05.08-.08.12-.21.34-.44.68-.64,1.02-24.53,39.71-31.06,21.95-32.7-30.77,0-.25-.02-.5-.02-.75h0c0-.24-.2-.44-.44-.44s-.42.18-.44.41c0,.01,0,.02,0,.03,0,0,0,.02,0,.03,0,.3,0,.6,0,.9-.37,39.24-3.61,59-13.01,59.25h0v.03s.01,0,.02.01c10.37,7.45,11.36,4.19,13.21-8.59Z"/>
      </g>
    </g>
  </g>
</svg>