<svg width="291" height="250" viewBox="0 0 291 250" fill="none" xmlns="http://www.w3.org/2000/svg">
<g clip-path="url(#clip0_185_90578)">
<path d="M11.4098 146.303C8.82635 144.181 6.16692 142.02 3.4695 139.821C3.27954 139.67 3.08958 139.518 2.86163 139.328C2.40573 138.987 1.72188 139.215 1.30396 139.67C0.924046 140.125 0.886054 140.731 1.152 141.224C1.26597 141.375 1.41794 141.527 1.53192 141.641C3.77344 144.219 6.01496 146.796 8.21848 149.26C51.9471 198.692 84.8101 225.493 107.795 225.114C107.833 225.114 107.947 225.114 107.985 225.114V225C87.2795 210.14 57.4179 184.098 11.4098 146.303Z" fill="#55C3F1"/>
<path d="M158.286 197.985C158.286 197.985 158.286 197.985 158.324 197.985C158.324 197.985 158.362 197.985 158.4 197.985C155.285 247.037 198.71 310.95 287.953 123.344C288.598 121.941 289.206 120.577 289.814 119.174C289.89 118.985 290.004 118.795 290.08 118.568C290.194 118.037 289.928 117.43 289.434 117.165C288.902 116.862 288.256 116.976 287.839 117.43C287.725 117.582 287.649 117.734 287.535 117.885C286.737 119.174 285.863 120.463 285.103 121.752C191.909 272.284 167.1 204.96 160.87 5.10954C160.87 4.16185 160.794 3.21415 160.794 2.26645C160.794 1.35667 160.034 0.598511 159.122 0.598511C158.21 0.598511 157.526 1.28085 157.451 2.15273C157.451 2.19064 157.451 2.22855 157.451 2.26645C157.451 2.26645 157.451 2.34227 157.451 2.38018C157.451 3.51741 157.451 4.65465 157.451 5.79188C156.045 154.542 143.735 229.448 108.023 230.396V230.509C108.023 230.509 108.061 230.509 108.099 230.547C147.497 258.789 151.258 246.431 158.286 197.985Z" fill="#005BAC"/>
</g>
<defs>
<clipPath id="clip0_185_90578">
<rect width="291" height="249" fill="white" transform="translate(0 0.164185)"/>
</clipPath>
</defs>
</svg>
